<svg id="Capa_1" enable-background="new 0 0 512 512" height="512" viewBox="0 0 512 512" width="512" xmlns="http://www.w3.org/2000/svg"><circle cx="181" cy="241.5" r="60"/><path d="m196 451.5h180c74.443 0 136-60.557 136-135s-61.557-135-136-135c-.059 0-.103 0-.161 0-30.103-72.246-100.943-121-179.839-121-107.52 0-196 88.48-196 196s88.48 195 196 195zm-15-300c49.629 0 90 40.371 90 90 0 19.406-6.313 37.277-16.798 51.991l57.404 57.404c5.859 5.859 5.859 15.352 0 21.211s-15.352 5.859-21.211 0l-57.404-57.404c-14.714 10.485-32.585 16.798-51.991 16.798-49.629 0-90-40.371-90-90s40.371-90 90-90z"/></svg>